<?xml version="1.0" encoding="UTF-8"?>
<svg id="Layer_1" data-name="Layer 1" xmlns="http://www.w3.org/2000/svg" viewBox="0 0 776.19 776.19">
  <rect x="0" width="776.19" height="776.19" rx="95" ry="95" fill="#fdf8f0" stroke-width="0"/>
  <g>
    <path d="M722.34,357.71c-8.09-89.22-46.14-164.4-113.92-223.08-72.94-63.15-158.7-89.17-254.52-80.31C191.16,69.38,52.54,207.54,52.35,387.85c-.54,53.17,11.73,98.45,29.08,137.09,19.64,43.73,47.31,81.66,83.38,113.38,36,31.66,77.06,54.42,122.67,68.85,45.59,14.43,92.26,19.98,139.88,14.01,86.03-10.79,158.42-48.37,214.85-114.17,61.36-71.56,88.67-155.25,80.13-249.31ZM696.42,410.04c-2.18,34.02-9.99,66.91-23.59,98.38-10.15,23.5-22.66,45.52-38.1,65.92-13.43,17.72-28.64,33.7-45.44,48.29-21.01,18.24-44.01,33.37-69.23,44.94-13.64,6.26-27.81,11.39-41.92,16.57-7.42,2.72-14.49-.89-19.2-8.91-7.48-12.76-11.64-26.74-13.84-41.2-1.68-11.06-3.43-22.37-2.89-33.46,1.59-32.83,7.97-64.49,27.72-91.97,9.33-12.98,21.84-22.34,34.97-31.08,19.37-12.89,39.19-25.2,57.8-39.11,30.98-23.17,52.32-53.41,61.78-91.35,1.06-4.26,1.15-8.84,1.17-13.27.02-5.93-4.34-8.44-9.13-5-6.01,4.32-11.76,9.07-17.22,14.08-17.89,16.45-37.6,30.23-58.82,42.08-21.32,11.91-43.6,21.2-67.52,26.03-11.55,2.33-23.37,3.45-35.12,4.65-15.26,1.57-30.61,2.36-45.86,4.09-17.61,1.99-35.11,4.96-52.72,6.88-16.38,1.78-32.85,3.85-49.27,3.83-32.65-.04-64.37-6.04-94.49-19.12-9.45-4.11-18.71-8.66-28.07-12.97-1.47-.68-3.02-1.25-4.6-1.61-5.73-1.34-9.43,2.29-6.87,7.61,4.02,8.35,8.22,16.9,13.95,24.08,21.94,27.51,52.62,41.75,84.46,54.06,17.3,6.69,34.35,13.86,49.47,25,17.94,13.21,28.31,30.81,31.23,52.73,1.15,8.64,2.02,17.4,1.94,26.1-.18,20.79-3.36,41.22-10.25,60.89-3.16,9.04-6.82,18.01-11.36,26.42-4.24,7.86-12.81,10.47-21.28,7.76-36.3-11.6-69.34-29.29-99.33-52.83-15.33-12.03-29.4-25.35-41.9-40.19-32.68-38.77-55.14-82.83-66.42-132.37-4.61-20.28-6.72-40.83-7.27-61.69-1.13-42.68,6.64-83.63,22.61-123.01,11.27-27.8,26.58-53.3,45.36-76.83,30.63-38.38,68.52-67.19,112.89-87.73,22.66-10.49,46.4-17.87,70.92-22.4,12.08-2.23,24.45-2.97,36.71-4.19,7.07-.7,14.19-1,21.28-1.47,49.65.55,96.63,11.82,140.75,34.48,22.72,11.67,43.66,26.04,62.88,43,32.07,28.32,57.31,61.67,75.38,100.44,11.89,25.5,19.74,52.23,24.77,79.9,4.43,24.4,5.25,49.01,3.68,73.55Z" fill="#497e7b" stroke-width="0"/>
    <path d="M241.39,295.59c-5.31-11.94-13.17-22.07-21.89-31.57-12.61-13.73-27.29-24.88-43.62-34.31-13.74,19.07-23.53,39.36-26.62,62.67-3.1,23.36,1.01,44.9,14.61,64.38,13.91,19.92,33.48,32,55.93,39.8,7.27,2.53,14.95,3.89,22.45,5.79.16-.46.33-.92.49-1.38-14.24-16.51-27.1-33.96-37.53-53.18-10.58-19.5-14.21-40.68-16.17-62.45,8.51,39.14,29.93,70.91,56.27,100.68,6.1-18.37,8.3-36.33,6.03-55.03-1.51-12.42-4.91-24.06-9.96-35.4Z" fill="#7ca388" stroke-width="0"/>
    <path d="M387.06,297.96c-25.41-.1-47.61,21-46.94,48-.1,27.98,21.7,48.53,47.35,48.43,27.74-.12,46.57-21.69,47.49-46.37,1.04-27.82-20.98-49.95-47.89-50.06Z" fill="#497e7b" stroke-width="0"/>
    <path d="M574.81,263.59c-14.21,7.5-29.14,9.83-44.66,5.79-29.83-7.77-46.81-32.73-45.91-61.21.65-20.52,10.28-37.37,26.32-50.39,1.49-1.21,2.58-2.93,4.97-5.73-5.25-1.18-9.11-2.79-12.97-2.78-25.95.08-46.3,11.72-61.18,32.29-19.52,26.96-19.46,64.4-.99,92.56,23.96,36.55,75.41,46.43,112.35,24.36,12.09-7.22,22.8-15.99,28.05-29.71.64-1.67.09-3.79.1-5.7-2.05.14-4.43-.36-6.09.51Z" fill="#e9b069" stroke-width="0"/>
  </g>
</svg>