<?xml version="1.0" encoding="UTF-8"?>
<svg id="Layer_1" data-name="Layer 1" xmlns="http://www.w3.org/2000/svg" viewBox="0 0 800 800">
  <path d="M64.25,399.76c.2-180.31,138.82-318.48,301.55-333.54,95.81-8.87,181.57,17.16,254.52,80.31,67.78,58.68,105.83,133.86,113.92,223.08,8.53,94.06-18.77,177.75-80.13,249.31-56.43,65.8-128.81,103.38-214.85,114.17-47.62,5.97-94.29.42-139.88-14.01-45.61-14.43-86.66-37.18-122.67-68.85-36.06-31.72-63.74-69.65-83.38-113.38-17.35-38.64-29.63-83.92-29.08-137.09ZM400.87,90.57c-7.1.48-14.21.77-21.28,1.47-12.26,1.21-24.62,1.96-36.71,4.19-24.52,4.52-48.26,11.9-70.92,22.4-44.37,20.54-82.26,49.36-112.89,87.73-18.78,23.53-34.08,49.03-45.36,76.83-15.97,39.38-23.74,80.33-22.61,123.01.55,20.85,2.65,41.41,7.27,61.69,11.28,49.55,33.74,93.6,66.42,132.37,12.5,14.83,26.58,28.15,41.9,40.18,29.99,23.55,63.03,41.23,99.33,52.83,8.47,2.71,17.04.1,21.28-7.76,4.54-8.41,8.19-17.38,11.36-26.42,6.88-19.66,10.07-40.09,10.25-60.89.07-8.7-.79-17.46-1.94-26.1-2.93-21.92-13.29-39.52-31.23-52.73-15.12-11.14-32.17-18.31-49.47-25-31.84-12.31-62.52-26.55-84.46-54.06-5.73-7.18-9.93-15.73-13.95-24.08-2.56-5.32,1.14-8.95,6.87-7.61,1.57.37,3.12.94,4.6,1.61,9.37,4.3,18.62,8.86,28.07,12.97,30.12,13.08,61.84,19.08,94.49,19.12,16.43.02,32.9-2.05,49.27-3.83,17.61-1.92,35.11-4.89,52.72-6.88,15.25-1.72,30.59-2.51,45.86-4.09,11.75-1.21,23.57-2.32,35.12-4.65,23.92-4.83,46.2-14.11,67.52-26.03,21.22-11.85,40.93-25.63,58.82-42.08,5.45-5.01,11.2-9.77,17.22-14.08,4.79-3.44,9.16-.93,9.13,5-.02,4.43-.1,9.01-1.17,13.27-9.46,37.94-30.8,68.18-61.78,91.35-18.61,13.92-38.43,26.23-57.8,39.11-13.13,8.73-25.64,18.1-34.97,31.08-19.75,27.48-26.13,59.14-27.72,91.97-.54,11.09,1.21,22.4,2.89,33.46,2.2,14.46,6.36,28.44,13.84,41.2,4.71,8.03,11.78,11.64,19.2,8.91,14.1-5.18,28.28-10.31,41.92-16.57,25.22-11.57,48.22-26.71,69.23-44.94,16.8-14.59,32.01-30.57,45.44-48.29,15.45-20.39,27.95-42.42,38.1-65.92,13.6-31.47,21.42-64.36,23.6-98.38,1.57-24.53.76-49.15-3.68-73.55-5.03-27.67-12.88-54.4-24.77-79.9-18.07-38.76-43.3-72.11-75.38-100.44-19.21-16.97-40.16-31.33-62.88-43-44.12-22.66-91.1-33.93-140.75-34.48Z" stroke-width="0"/>
  <path d="M200.95,297.25c1.96,21.77,5.59,42.95,16.17,62.45,10.42,19.22,23.28,36.67,37.53,53.18-.16.46-.33.92-.49,1.38-7.49-1.9-15.17-3.26-22.45-5.79-22.45-7.81-42.02-19.88-55.93-39.8-13.6-19.48-17.71-41.02-14.61-64.38,3.09-23.31,12.87-43.6,26.62-62.67,16.34,9.43,31.01,20.58,43.62,34.31,8.72,9.5,16.58,19.64,21.89,31.57,5.05,11.34,8.45,22.98,9.96,35.4,2.27,18.7.07,36.66-6.03,55.03-26.34-29.77-47.76-61.55-56.27-100.68Z" stroke-width="0"/>
  <path d="M352.03,357.86c-.66-27,21.53-48.1,46.94-48,26.91.1,48.93,22.24,47.89,50.06-.92,24.68-19.75,46.25-47.49,46.37-25.64.11-47.44-20.45-47.35-48.43Z" stroke-width="0"/>
  <path d="M527.44,163.96c-2.4,2.8-3.48,4.52-4.97,5.73-16.04,13.02-25.67,29.87-26.32,50.39-.91,28.47,16.08,53.44,45.91,61.21,15.53,4.04,30.45,1.71,44.66-5.79,1.66-.88,4.04-.37,6.09-.51,0,1.91.54,4.03-.1,5.7-5.25,13.72-15.96,22.49-28.05,29.71-36.95,22.07-88.39,12.18-112.35-24.36-18.47-28.16-18.53-65.6.99-92.56,14.89-20.57,35.23-32.21,61.18-32.29,3.85-.01,7.71,1.6,12.97,2.78Z" stroke-width="0"/>
</svg>
